<?xml version="1.0" encoding="UTF-8" standalone="no" ?>
<!DOCTYPE svg PUBLIC "-//W3C//DTD SVG 1.1//EN" "http://www.w3.org/Graphics/SVG/1.1/DTD/svg11.dtd">
<svg xmlns="http://www.w3.org/2000/svg" xmlns:xlink="http://www.w3.org/1999/xlink" version="1.1" width="1080" height="1080" viewBox="0 0 1080 1080" xml:space="preserve">
<desc>Created with Fabric.js 5.2.4</desc>
<defs>
</defs>
<rect x="0" y="0" width="100%" height="100%" fill="transparent"></rect>
<g transform="matrix(1 0 0 1 540 540)" id="b07c6336-52cd-496e-a09b-a36dc99b2fef"  >
<rect style="stroke: none; stroke-width: 1; stroke-dasharray: none; stroke-linecap: butt; stroke-dashoffset: 0; stroke-linejoin: miter; stroke-miterlimit: 4; fill: rgb(255,255,255); fill-rule: nonzero; opacity: 1; visibility: hidden;" vector-effect="non-scaling-stroke"  x="-540" y="-540" rx="0" ry="0" width="1080" height="1080" />
</g>
<g transform="matrix(1 0 0 1 540 540)" id="ef00c42a-74b5-4012-bbc0-ca70c5cc6ad0"  >
</g>
<g transform="matrix(43.88 0 0 43.88 540.98 540.04)" id="eb8adef1-57bd-4ab6-8d25-7ed79bf0898d"  >
<path style="stroke: rgb(255,255,255); stroke-width: 1; stroke-dasharray: none; stroke-linecap: butt; stroke-dashoffset: 0; stroke-linejoin: miter; stroke-miterlimit: 4; fill: rgb(228,228,228); fill-rule: nonzero; opacity: 1;" vector-effect="non-scaling-stroke"  transform=" translate(-12, -12.5)" d="M 19.5 1 L 4.5 1 C 2.019 1 0 3.019 0 5.5 L 0 18.5 C 0 20.981 2.019 23 4.5 23 L 6.5 23 C 6.776 23 7 22.776 7 22.5 C 7 22.224 6.776 22 6.5 22 L 4.5 22 C 2.5700000000000003 22 1 20.43 1 18.5 L 1 9 L 23 9 L 23 18.5 C 23 20.43 21.43 22 19.5 22 L 17.5 22 C 17.224 22 17 22.224 17 22.5 C 17 22.776 17.224 23 17.5 23 L 19.5 23 C 21.981 23 24 20.981 24 18.5 L 24 5.5 C 24 3.019 21.981 1 19.5 1 Z M 1 8 L 1 5.5 C 1 3.5700000000000003 2.5700000000000003 2 4.5 2 L 19.5 2 C 21.43 2 23 3.5700000000000003 23 5.5 L 23 8 L 1 8 Z M 5 5 C 5 5.552 4.552 6 4 6 C 3.4480000000000004 6 3 5.552 3 5 C 3 4.448 3.448 4 4 4 C 4.552 4 5 4.448 5 5 Z M 8 5 C 8 5.552 7.552 6 7 6 C 6.448 6 6 5.552 6 5 C 6 4.448 6.448 4 7 4 C 7.552 4 8 4.448 8 5 Z M 11 5 C 11 5.552 10.552 6 10 6 C 9.448 6 9 5.552 9 5 C 9 4.448 9.448 4 10 4 C 10.552 4 11 4.448 11 5 Z M 18 15.5 C 18 17.393 17.132 19.134999999999998 15.620000000000001 20.279 C 15.226 20.578 15.000000000000002 21.017 15.000000000000002 21.485 L 15.000000000000002 23.5 C 15.000000000000002 23.776 14.776000000000002 24 14.500000000000002 24 C 14.224000000000002 24 14.000000000000002 23.776 14.000000000000002 23.5 L 14.000000000000002 21.485 C 14.000000000000002 20.701999999999998 14.370000000000001 19.971 15.016000000000002 19.482 C 16.277 18.528 17 17.076 17 15.5 C 17 14.248 16.533 13.051 15.687 12.126999999999999 C 15.511999999999999 11.937 15.302999999999999 11.996999999999998 15.242999999999999 12.021999999999998 C 15.169999999999998 12.049999999999999 15.000999999999998 12.141999999999998 15.000999999999998 12.377999999999998 L 15.000999999999998 13.857 C 15.000999999999998 15.459 13.817999999999998 16.833 12.308999999999997 16.983999999999998 C 11.459999999999997 17.072999999999997 10.615999999999998 16.793 9.988999999999997 16.223999999999997 C 9.361999999999997 15.656999999999996 9.001999999999997 14.844999999999997 9.001999999999997 13.998999999999997 L 9.001999999999997 12.376999999999997 C 9.001999999999997 12.140999999999996 8.832999999999997 12.048999999999998 8.759999999999998 12.020999999999997 C 8.698999999999998 11.997999999999998 8.490999999999998 11.936999999999998 8.315999999999997 12.125999999999998 C 7.468999999999998 13.049999999999997 7.001999999999997 14.246999999999998 7.001999999999997 15.498999999999999 C 7.001999999999997 17.075 7.724999999999997 18.526999999999997 8.985999999999997 19.480999999999998 C 9.631999999999998 19.97 10.001999999999997 20.700999999999997 10.001999999999997 21.483999999999998 L 10.001999999999997 23.499 C 10.001999999999997 23.775 9.777999999999997 23.999 9.501999999999997 23.999 C 9.225999999999997 23.999 9.001999999999997 23.775 9.001999999999997 23.499 L 9.001999999999997 21.483999999999998 C 9.001999999999997 21.016 8.775999999999996 20.576999999999998 8.381999999999998 20.278 C 6.869999999999997 19.133 6.001999999999998 17.391 6.001999999999998 15.498999999999999 C 6.001999999999998 13.995999999999999 6.561999999999998 12.559 7.578999999999998 11.45 C 7.974999999999998 11.017999999999999 8.579999999999998 10.876 9.122999999999998 11.088999999999999 C 9.656999999999998 11.296999999999999 10.001999999999997 11.801999999999998 10.001999999999997 12.376999999999999 L 10.001999999999997 13.998999999999999 C 10.001999999999997 14.562999999999999 10.241999999999997 15.102999999999998 10.659999999999997 15.482 C 11.084999999999997 15.866 11.634999999999996 16.047 12.209999999999997 15.988999999999999 C 13.214999999999996 15.886999999999999 14.001999999999997 14.950999999999999 14.001999999999997 13.855999999999998 L 14.001999999999997 12.376999999999999 C 14.001999999999997 11.802 14.346999999999998 11.296999999999999 14.880999999999997 11.088999999999999 C 15.423999999999996 10.876999999999999 16.028999999999996 11.018999999999998 16.424999999999997 11.45 C 17.441999999999997 12.558 18.001999999999995 13.995999999999999 18.001999999999995 15.498999999999999 Z" stroke-linecap="round" />
</g>
</svg>